<?xml version="1.0" encoding="utf-8"?>
<!-- Generator: Adobe Illustrator 23.0.1, SVG Export Plug-In . SVG Version: 6.00 Build 0)  -->
<svg version="1.1" id="Layer_1" xmlns="http://www.w3.org/2000/svg" xmlns:xlink="http://www.w3.org/1999/xlink" x="0px" y="0px"
	 viewBox="0 0 386 119" style="enable-background:new 0 0 386 119;" xml:space="preserve">
<style type="text/css">
	.st0{fill:#1A1A1A;}
	.st1{font-family:'EdwardianScrAltITCTT';}
	.st2{font-size:84px;}
</style>
<g transform="translate(0.000000,1009.000000) scale(0.100000,-0.100000)">
	<path class="st0" d="M1538.6,10095.1c0-0.8,0.5-1.4,1-1.4c0.6,0,1,0.3,1,0.8c0,0.5-0.4,1.1-1,1.4
		C1539.1,10096.2,1538.6,10095.8,1538.6,10095.1z"/>
	<path class="st0" d="M1701.5,10031.5c-0.3-0.5,0.1-1.1,0.9-1.4c0.9-0.3,1.6-1.5,1.6-2.6c0-1.2,0.9-3.2,2-4.6
		c2-2.2,2.1-3.3,1.8-25.2c-0.3-20.5-0.5-23.1-2-24.5c-1.1-0.9-1.8-2.8-1.8-4.5c0-1.7-0.6-3.6-1.4-4.2c-0.7-0.7-1.7-3.4-2-6
		c-0.4-2.7-1.2-5-1.7-5.3c-0.5-0.3-0.9-1.9-0.9-3.5c0-1.9-0.7-3.5-2-4.4c-1.1-0.9-2-2.4-2-3.5c0-1-0.7-2.2-1.5-2.4
		c-0.8-0.3-1.5-1.1-1.5-1.7c0-0.7-0.7-1.5-1.5-1.7c-0.8-0.3-1.5-1-1.5-1.7c0-0.6-1.2-1.4-2.7-1.7c-1.6-0.3-3.6-0.8-4.7-1.2
		c-1.1-0.4-3.7-1-5.8-1.2c-2.2-0.3-4.1-0.9-4.5-1.4c-0.4-0.6-2.7-1.2-5-1.5c-2.4-0.3-5.1-1.2-6.1-2.1c-1-1-3-1.6-4.4-1.6
		s-3.5-0.6-4.5-1.3c-1.1-0.7-2.7-1.3-3.5-1.3c-0.9,0-3.4-1.6-5.8-3.5c-2.4-2-5.5-4.1-7.1-4.8c-1.6-0.7-2.9-1.6-2.9-2.1
		c0-0.5-0.5-0.9-1.1-0.9c-2.1,0-10.8-8.4-11.7-11.3c-1.7-5.1-1.4-6,2.5-6c2.4,0,3.4,0.4,3.4,1.2c0,0.7,2.1,2.2,4.7,3.3
		c2.6,1.1,5,2.5,5.4,3c0.4,0.6,1.8,1.1,3,1.1c1.2,0,2.8,0.8,3.4,1.7c0.9,1.2,2.3,1.7,5,1.7c2.2,0,4.3,0.5,5,1.3
		c0.9,1,3.2,1.3,8.5,1.3c7,0,7.4-0.1,8.5-2.2c1.1-2.1,1-2.5-1-3.6c-1.2-0.7-2.2-1.9-2.2-2.7c0-1.9-1.9-3.5-3.9-3.5
		c-2.5,0-15.6-11.6-16.3-14.4c-0.4-1.3-1.1-2.9-1.7-3.5c-0.5-0.6-2.2-3.4-3.7-6.1c-3.6-6.5-4.7-7.9-8.4-10.7c-1.7-1.3-5.9-5-9.5-8.1
		s-8.1-6.2-10-7c-1.9-0.7-3.4-1.6-3.4-2.1c0-1.3-2.7-1-6,0.5c-2.2,1-3.3,1-4.2,0.4c-1.6-1.2-6.3,0.6-7.1,2.8c-0.4,1-1.6,1.5-4.4,1.5
		c-2.1,0-3.8-0.3-3.8-0.8c0-0.4,1.8-2.4,3.8-4.3c3.4-3.2,4.3-3.5,8.6-3.5h4.6l-0.7-5.4c-0.5-4.3-1.2-5.9-3.4-8
		c-2.4-2.2-2.9-3.5-3.4-9c-0.4-3.8-1.3-7.1-2.1-7.9s-1.5-1.7-1.5-2.1c0-1.7-9.4-11.1-12-12c-1-0.3-1.8-1-1.8-1.4s-1.3-2-3-3.4
		c-3-2.6-3.7-4.8-2.1-5.7c0.5-0.3,1.1,0.1,1.5,0.8c0.3,0.7,1.7,1.3,3.1,1.3s3.3,0.8,4.4,1.7c1.1,1,3.1,1.7,4.6,1.7
		c4.6,0,10.9,2.8,11.6,5.1c0.3,1.1,1.7,2.8,3,3.7c1.3,0.9,2.9,2.9,3.4,4.5c0.6,1.6,1.7,3.2,2.5,3.5c0.8,0.3,1.5,0.9,1.5,1.4
		c0,1.3,3.7,4.3,5.3,4.3c2.4,0,4.5,1,4.5,2.1c0,1.6,12.3,3.5,14.7,2.2c1.1-0.4,3.1-0.9,4.4-0.9c3.1,0,4.1-1.5,2.2-3.4
		c-0.9-0.9-1.6-2.2-1.6-3.2s-1.4-2.8-3.1-4.1c-4-3-2.7-4,5.9-4c4.8,0,6.5-0.3,8.1-1.7c2.3-2,2.5-3,0.8-4.8c-3.4-3.5-6.4-5.5-8.5-5.5
		c-1.2,0-2.5-0.6-2.8-1.3c-0.4-0.7-1.2-1.3-2-1.3c-0.7,0-2.1-1-3-2.2c-0.9-1.1-2.4-2.3-3.4-2.6c-2.7-0.8-7.4-4.8-8.2-7.1
		c-0.4-1-3.7-4.6-7.5-8c-5.9-5.3-7.4-6.1-10.3-6.1c-2.1,0-4-0.6-5.1-1.6c-2-1.8-8.5-4.4-11-4.4c-0.9,0-2.9-0.6-4.3-1.3
		c-1.6-0.7-6.4-1.6-10.8-1.8c-5.6-0.4-8.5-1-9.3-2c-1-1.2-1.2-1.2-1.8,0.2c-1,2-3.1,1.9-3.7-0.3c-0.3-1-1.4-1.7-2.5-1.7
		c-3.1,0-8.8-2.4-11.9-5.1c-1.8-1.6-4.5-2.8-6.9-3.1c-2.3-0.3-4.2-0.9-4.5-1.3c-0.3-0.3-2.5-1-4.8-1.2c-2.4-0.3-4.9-1.2-5.5-1.8
		c-0.8-0.9-3.1-1.3-6.9-1.3c-3.6,0-6.1-0.4-6.8-1.2c-2.6-2.7-9.6-4.1-18-3.7c-9.5,0.5-19.9,2.3-21.7,3.9c-0.7,0.6-4,1-9,1h-7.8
		l0.6-2.2c0.7-2.3,1-2.7,6.3-7.8c1.7-1.6,3.1-3.6,3.1-4.3c0-0.7,0.9-1.9,2-2.7c1.1-0.9,2-2,2-2.5c0-0.6,2-1.8,4.4-2.9
		c2.5-1,4.4-2.2,4.4-2.7c0-0.5,1.3-0.9,2.9-0.9c1.6,0,3.5-0.6,4.3-1.3c1.2-1,5.6-1.4,20.1-1.8c19.6-0.6,21.1-1,27.9-5.5
		c1.9-1.3,4.8-2.9,6.5-3.7c1.7-0.8,4.6-2.8,6.5-4.4c4.8-4.2,13.3-6.6,23.7-6.6c4.9,0,10,0.5,12.5,1.3c5.5,1.7,13.9,1.6,20.2-0.2
		c3.8-1.1,5.9-2.4,8.8-5.7c3.2-3.5,3.8-4.9,4.2-9.5c0.6-7.3-1.2-28.2-2.6-29.4c-1.7-1.5-1.4-15.4,0.4-18.5c0.9-1.6,1.7-6.6,2.1-13.3
		c0.4-5.9,1.1-11.3,1.5-12.2c0.5-0.8,1.2-4.1,1.5-7.4c0.5-4.8,1.2-6.5,3.3-8.7c1.6-1.5,3.1-4.2,3.4-6.1c0.8-4.1,5.5-8.7,11.4-11.2
		c2.6-1,4.8-2.7,5.1-3.5c0.3-1.1,1.4-1.7,3-1.7c1.4,0,2.7-0.6,3.1-1.3c0.3-0.7,1.1-1.3,1.7-1.3c2,0,5.8-3.9,5.8-6c0-2-4-6.1-6-6.1
		c-0.5,0-1.2-0.6-1.5-1.3c-0.4-0.9-2-1.3-4.7-1.3c-2.9,0-4.6-0.5-5.8-1.7c-1.2-1.2-2.9-1.7-5.8-1.7c-4.4-0.1-14-2.6-15.8-4.2
		c-0.6-0.5-2.2-1-3.5-1c-1.3,0-3.1-0.5-3.9-1.2c-0.9-0.7-3.7-1.6-6.5-2.2c-7.8-1.4-15.6-3.5-16.6-4.4c-0.5-0.4-2.4-0.9-4-0.9
		c-1.8,0-4.1-0.8-5.4-1.7c-1.3-1-3.6-1.7-5.5-1.7c-1.8,0-4.4-0.6-6-1.3c-1.5-0.7-4.8-1.5-7.4-1.7c-2.7-0.3-4.7-0.9-4.7-1.2
		c0-0.4-2.2-1-4.8-1.3c-2.7-0.3-5.3-1.1-6-1.8c-0.7-0.7-2.3-1.3-3.5-1.3c-1.3,0-4.7-1.1-7.7-2.5c-3-1.5-7-2.9-9.2-3.2
		c-2.1-0.3-4.1-0.9-4.7-1.2c-1.2-0.9-12.8-4.3-14.5-4.3c-0.7-0.1-3.1-0.8-5.2-1.7s-5.3-1.6-7.1-1.7c-1.7,0-3.2-0.4-3.4-1
		c-0.2-0.5-2.4-1.5-4.8-2c-6.1-1.6-11-3.3-12.5-4.6c-0.7-0.5-3.1-1-5.1-1c-2.2,0-4.1-0.5-4.6-1.2c-0.8-1.1-11.8-4.8-14.5-4.8
		c-0.7,0-1.9-0.6-2.6-1.3c-0.7-0.7-2.8-1.3-4.7-1.3c-1.9,0-4.3-0.6-5.2-1.4c-1-0.8-3.4-1.7-5.5-2.2c-7.4-1.4-13.1-3-14.3-4.1
		c-0.7-0.6-2.9-1-4.8-1c-2.1,0-4-0.4-4.4-1c-1.1-1.6-9.3-4.2-15-4.8c-3.1-0.3-6.5-1-7.6-1.6c-1.1-0.5-3.9-1.3-6.3-1.6
		c-2.4-0.3-4.6-1-5-1.5c-0.4-0.5-2.7-1.2-5-1.5c-2.4-0.3-4.7-0.8-5.3-1.1c-0.5-0.4-2.7-1-4.7-1.3c-2-0.3-4-1.1-4.4-1.7
		c-0.4-0.5-3.5-1.3-7-1.6c-3.5-0.3-7.1-1.1-8-1.8c-2.2-1.7-12.6-1.7-15.4-0.1c-1.1,0.7-3.7,1.6-5.9,1.8c-2.1,0.3-4.4,1.1-5.2,1.6
		c-1.8,1.2-20.6,1.3-21.6,0c-0.4-0.5-3.4-1.2-6.9-1.5c-3.3-0.3-7.1-1.1-8.4-1.8c-1.5-0.8-7.2-1.4-18.4-1.8
		c-8.9-0.3-16.6-0.9-17.2-1.2c-0.5-0.4-2.1-1-3.4-1.4c-1.3-0.3-3-1.1-3.6-1.6c-0.7-0.5-1.9-1.4-2.6-2c-0.8-0.5-4.7-1.3-8.7-1.6
		s-7.9-1.1-8.6-1.8c-0.7-0.6-2-1.1-2.7-1.1s-2.1-0.6-3-1.4c-0.8-0.8-3.3-1.6-5.6-1.8c-2.2-0.3-6.3-1.8-9.1-3.5
		c-2.8-1.6-5.7-2.9-6.6-2.9c-0.9,0-2.2-0.6-2.9-1.3c-0.7-0.7-2.2-1.3-3.2-1.3s-2.8-0.6-3.7-1.4c-0.9-0.7-4.6-2.2-8.3-3.4
		s-7.1-2.4-7.7-2.9c-0.6-0.5-2.1-1-3.3-1c-1.2,0-2.7-0.8-3.2-1.7c-0.6-1-1.6-1.7-2.1-1.7c-0.6,0-3.1-1.1-5.5-2.6
		c-2.7-1.6-5.6-2.6-7.7-2.6c-1.9,0-3.6-0.4-4-1c-0.3-0.5-2.1-1.5-3.7-2.2c-1.7-0.7-3.8-1.6-4.7-2.1c-1-0.5-2.4-1.1-3.1-1.5
		c-3.3-1.6-16-9.4-17.9-11.2c-1.1-1-3.3-2.4-4.9-3c-1.6-0.7-3-2.1-3.1-3.1c-0.2-1.1-1.3-2.1-2.7-2.3c-1.3-0.3-3.5-1.6-4.9-2.8
		c-2.5-2.2-2.5-2.2-0.5-2.7c1.4-0.3,2-1.2,2-2.9c0-1.3,0.7-2.8,1.6-3.2c1.5-0.7,1.5-1,0-2.9c-1.3-1.7-1.6-3.9-1.4-9.4
		c0.3-6.6,0.5-7.3,2.5-7.7c3.6-0.8,6.6-5.1,7.2-10.3c0.5-4.5,0.7-4.8,3.6-5.4c1.7-0.3,4.8-2.2,6.8-4.2c2.1-1.9,4.3-3.5,5-3.5
		c1.9,0,8.2-5.7,8.2-7.3c0-1.5,1.6-1.7,2.5-0.4c0.3,0.5,3.3,0.9,6.7,0.9c8.2,0,13.5,0.9,13.5,2.2c0,0.6,1.2,1.8,2.6,2.7
		c1.4,0.9,3.4,2.3,4.5,3.2c2.5,1.7,3.1,1.8,4.9,0.3c0.7-0.6,2.1-1.4,3-1.7c1-0.3,1.8-1.3,1.8-2.2c0-2.4,1.1-4.5,2.1-3.9
		c0.5,0.3,0.9,1.4,0.9,2.5c0,1.1,0.7,2.6,1.5,3.4c0.8,0.7,1.5,1.9,1.5,2.6c0,0.8,0.9,2.1,2,2.9c1.1,0.9,2,2.2,2,2.9
		c0,0.8,0.9,2.2,2,3.4s2,2.2,2,2.5c0,0.3,1.8,1.2,3.9,2.1c2.2,0.8,6.2,3.5,8.9,5.8c2.7,2.4,5.8,4.3,6.9,4.3s2.3,0.5,2.6,1.2
		s1.4,1.4,2.5,1.6c1,0.3,1.9,1,1.9,1.6c0,1.5,2.9,2.9,8.7,4.1c2.3,0.5,4.1,1.3,4.1,1.7c0,0.5,0.6,0.9,1.3,0.9c0.8,0,2.2,0.8,3.1,1.7
		c1,1,3.1,1.7,4.5,1.7s3,0.3,3.2,0.8c0.3,0.3,2.7,1,5.3,1.3c3.5,0.4,5.5,1.2,7.7,3.2c3.3,3.1,9.9,6,13.9,6c1.5,0,3.9,0.5,5.3,1.2
		c1.4,0.6,5.5,1.5,9.2,1.7c3.5,0.3,6.5,1,6.5,1.4c0,2.5,13.2,16.4,15.6,16.4c0.5,0,1.2,0.6,1.6,1.3c0.3,0.7,2.3,1.6,4.4,1.8
		c2.3,0.3,4.5,1.1,5.1,1.7c0.6,0.7,2.3,1.2,3.7,1.2c1.9,0,3.1,0.8,4.3,2.5c1.4,2,2.7,2.7,6,3.1c3.7,0.5,4.4,1,4.9,3.1
		c0.3,1.4,1.2,2.5,2,2.5s1.8,0.8,2.1,1.7c0.3,1,1,1.7,1.5,1.7c0.5,0,1.1,1.2,1.5,2.6c0.4,1.5,1,2.6,1.5,2.6c0.4,0,1.1,1,1.5,2.3
		c0.8,2.8,4.3,6.3,6.5,6.3c0.9,0,2.6,0.8,3.8,1.7c1.3,1,3.6,1.7,5.5,1.7c1.8,0,3.8,0.5,4.5,1.1c0.7,0.7,3.9,1.5,7.2,1.8
		c3.1,0.3,6.1,0.9,6.4,1.3c0.3,0.3,2.6,1,5.1,1.3c2.5,0.3,5.1,1.2,5.7,1.8c0.7,0.7,2.3,1.3,3.4,1.3c1.2,0,3.7,0.5,5.5,1.2
		c1.9,0.6,5.4,1.5,8,1.7c2.6,0.3,4.9,1,5.2,1.4c0.3,0.3,2.4,1,4.7,1.3c2.3,0.3,4.8,1.1,5.6,1.7s3.1,1.3,4.9,1.6
		c1.9,0.3,6.1,1.7,9.3,3.1c3.1,1.5,7.2,2.6,9,2.6c1.9,0,3.4,0.5,3.7,1.2c0.3,0.7,2.3,1.6,4.3,1.8c2.1,0.3,4.6,0.9,5.7,1.3
		c1.1,0.4,3.4,1,5.3,1.4c1.9,0.3,4,1.1,4.8,1.7c0.7,0.7,3.1,1.2,5.2,1.2c2.6,0,4.1,0.4,4.4,1.3c0.3,0.7,2.2,1.5,4.1,1.8
		c2.1,0.3,5,1,6.8,1.7c1.7,0.7,3.4,1.2,4,1.2c0.5,0,1.5,0.6,2.2,1.3c0.7,0.7,2.8,1.3,4.6,1.3c2,0,4.5,0.8,5.9,1.7
		c1.7,1.1,4,1.7,6.7,1.7c2.6,0,4.7,0.5,5.4,1.3c0.7,0.7,2.3,1.3,3.4,1.3c1.2,0,2.8,0.6,3.4,1.3c0.7,0.7,2.8,1.3,4.6,1.3
		c2,0,4.5,0.8,5.9,1.7s3.5,1.7,4.7,1.7s3.8,0.6,5.7,1.3c2,0.7,4.8,1.3,6.4,1.3c1.5,0,3.6,0.6,4.7,1.3c1,0.7,2.9,1.3,4,1.3
		c1.2,0,2.9,0.6,3.7,1.4c0.9,0.9,3.2,1.8,5.2,2.2c14.2,2.8,17.4,3.5,17.9,4.2c0.3,0.3,2.4,1,4.5,1.2c2.3,0.3,5.3,1.2,6.9,1.9
		c1.6,0.7,4.2,1.3,5.9,1.3c3.4,0,14.8,2.9,16.7,4.4c0.7,0.5,3.6,1.1,6.6,1.4c3.7,0.3,5.3,0.9,5,1.6c-0.3,0.7,1.2,1.2,4.6,1.6
		c2.9,0.3,5.6,1,6.2,1.5c0.5,0.4,1.9,0.9,3.1,0.9c1.1,0,3.6,0.8,5.7,1.7c2,1,4.3,1.7,5.2,1.7c0.8,0,2.2,0.6,3,1.3
		c1.8,1.6,7.4,1.7,9.1,0.3c0.7-0.6,1.2-2.9,1.2-5.2c0-3.7-0.3-4.3-2.6-5c-1.4-0.5-4.1-2.1-6.1-3.5c-2-1.5-4.1-2.6-4.7-2.6
		c-0.6,0-1.7-0.6-2.4-1.3c-0.7-0.7-2.7-1.5-4.5-1.8c-1.9-0.3-3.3-1-3.3-1.6c0-1.3-4.4-3.5-9-4.3c-1.8-0.3-4.1-1.5-5.2-2.6
		c-1.2-1-3.6-2.5-5.5-3.2c-1.9-0.7-6.8-4.2-10.9-7.9c-4.6-4.1-8.4-6.7-9.5-6.7c-1.2,0-2.6-0.8-3.1-1.7c-0.6-1-2.1-1.7-3.2-1.7
		c-1.3,0-2.8-0.4-3.3-1c-0.7-0.6-7.6-1.2-16.9-1.6c-10.3-0.3-16.2-1-17-1.6c-0.7-0.6-3.8-1-7.6-1c-4.4,0-6.9-0.4-8.1-1.4
		c-1-0.8-3.6-1.6-6-1.7c-5.6-0.6-17.5-3.8-17.5-4.8c0-0.4-0.7-0.8-1.5-0.8c-0.9,0-1.8-0.5-2.1-1.2c-0.3-0.7-2.1-1.5-3.8-1.7
		c-4.5-0.8-12.3-3.9-12.3-4.8c0-0.5-0.9-0.9-1.9-0.9c-2.9,0-5-1-5-2.2c0-0.6-1.2-1.4-2.7-1.7c-3.5-0.7-11.7-6.3-16-10.8
		c-1.8-1.9-3.9-3.5-4.6-3.5c-0.8,0-3.3-1.7-5.8-3.8c-2.5-2.2-6.9-5.3-9.8-7c-3-1.7-5.9-3.9-6.6-4.8c-0.8-1.1-2.3-1.6-4.4-1.6
		c-2.5,0-3.4-0.4-3.8-1.7s-1.1-1.6-2.8-1.2c-3.2,0.7-6.4-1-6.4-3.5c0-1.7,0.5-2.2,2.4-2.2c1.4,0,4.5-1.2,7.1-2.8
		c4-2.4,4.9-2.6,7.7-1.7c1.7,0.4,5.6,1.1,8.7,1.5c3.1,0.3,6.1,1.1,6.8,1.8c0.7,0.7,2.9,1.2,5.4,1.2c2.3,0,4.5,0.4,4.8,0.9
		c0.4,0.5,2.6,1.7,4.9,2.7c3.7,1.6,5.5,1.7,13,1.2c21.5-1.3,33.1-0.4,35,2.7c0.4,0.7,1.2,1.2,1.7,1.2c0.6,0,1.9,0.8,3,1.7
		c1.1,1,3.2,1.7,4.8,1.7c1.7,0,3.1,0.3,3.4,0.8c0.3,0.3,5.8,1,12.3,1.2c7.9,0.3,12.9,0.9,15,1.8c1.8,0.8,5.2,1.4,7.8,1.4
		c3.3,0,5.1,0.4,6.4,1.7c1.4,1.3,3.1,1.7,6.7,1.7c4.9,0,13.3,1.7,18.9,3.9c1.7,0.7,5.3,1.3,8.3,1.6c2.9,0.2,5.6,0.9,6,1.5
		c0.4,0.6,3.3,1.5,6.5,1.8c3.1,0.3,5.9,1,6.2,1.5c0.3,0.4,3.5,1.1,7.2,1.4c3.6,0.3,6.9,1,7.2,1.5c0.8,1,47,1,48.2,0
		c0.6-0.5,6.8-1.1,13.8-1.5c7.1-0.3,13.4-1,14.2-1.6c1.9-1.3,27-1.2,28.7,0c0.8,0.5,3.4,1.3,6.1,1.6c2.6,0.3,4.6,1,4.6,1.3
		c0,0.4,1.6,1,3.4,1.3c1.9,0.3,3.4,1,3.4,1.4c0,0.4,1.5,1.1,3.2,1.6c3.1,1,9.5,6.3,9.5,8c0,0.4,1.1,1.2,2.5,1.6c1.4,0.4,3,1.8,3.4,3
		c0.5,1.2,1.6,2.2,2.5,2.2c0.8,0,1.5,0.7,1.5,1.6c0,2.2,5.2,7.1,7.7,7.1c1.5,0,2.2,0.7,2.7,2.6c0.4,1.5,1.1,2.6,1.5,2.6
		c0.5,0,2,1.6,3.1,3.5c1.3,1.9,2.7,3.5,3.1,3.5c1.5,0,8.5,6.9,8.5,8.3c0,0.6,1.4,1.8,3.1,2.6c1.8,0.8,4.5,2.7,6.3,4.2
		c5.4,4.8,9.4,7.4,11.8,8c1.3,0.3,2.4,0.8,2.4,1.1c0,0.7,8.9,4.1,13.1,4.9c1.5,0.3,2.7,0.9,2.7,1.2c0,0.4,1.5,1,3.2,1.3
		c1.7,0.3,3.6,1,4.1,1.3c0.9,0.7,5.9,1.9,18.2,4.5c2.5,0.5,5.3,1.5,6.4,2.1c1.1,0.7,3.8,1.2,6.3,1.2c2.6,0,5,0.5,6,1.3
		s3.4,1.6,5.5,1.9c2.2,0.3,4.2,1,4.6,1.7c0.4,0.6,1.4,1.1,2.1,1.1c0.8,0,1.6,0.6,2,1.3c0.3,0.9,1.9,1.3,4.5,1.3
		c3.3,0,3.9,0.3,3.9,1.7c0,2.2,3.8,6.9,5.6,6.9c0.7,0,1.3,0.6,1.3,1.3s1.1,1.8,2.4,2.6c1.3,0.7,3.1,2.9,4,4.8c1,1.9,2.1,3.5,2.5,3.5
		c0.4,0,1,1.6,1.3,3.7c0.3,2,2,5.9,3.5,8.6c1.7,2.8,3.1,6,3.1,7.1c0,1.2,0.5,2.4,1.1,2.7c0.5,0.3,2.1,2.7,3.4,5.3
		c1.8,3.5,2.3,5.4,1.8,7.7c-0.3,1.6-1,3-1.4,3c-0.4,0-1,1.2-1.3,2.6c-0.4,1.6-1.3,2.6-2.2,2.6c-1.2,0-1.5,1.1-1.5,5
		c0,2.8,0.5,5.4,1.2,6.1s3.9,1,7.7,1c4.2,0,7.2,0.4,8.5,1.3c1.2,0.8,4.2,1.2,8.4,1.3c5.2,0,6.8,0.3,8.3,1.7c1.3,1.2,3.1,1.7,6,1.7
		c4.9,0,10.1,1.8,15.6,5.6c5.1,3.5,10.4,5.6,14,5.6c1.5,0,3.9,0.5,5.3,1.2c1.4,0.6,5.2,1.5,8.4,1.8c3.8,0.4,6.2,1.1,7,2.2
		c1.5,1.8,5.5,3,12.4,3.9c2.6,0.3,4.6,0.9,4.6,1.3c0,0.3,1.9,1,4.2,1.3c2.3,0.3,4.8,1.1,5.6,1.7c1.4,1,5.5,2.2,14.8,4.1
		c2.5,0.5,5.3,1.5,6.4,2.1c1.1,0.7,3.7,1.2,6,1.2c2.5,0,4.6,0.5,5.3,1.3c0.7,0.7,1.8,1.3,2.4,1.3s2.4,0.6,3.8,1.3s4.2,1.5,6.1,1.8
		c1.9,0.3,3.8,1,4.5,1.7c0.6,0.7,2.3,1.2,3.6,1.2c1.3,0,3,0.6,3.5,1.4c0.8,0.9,3.7,1.6,8.5,2.1c8.8,0.9,15.6,2.4,17.8,4
		c0.8,0.7,3.1,1.2,4.8,1.2c1.8,0,4,0.5,4.8,1.2c0.9,0.6,4,1.6,7,2.1c9.4,1.6,15.6,3.2,16.9,4.3c0.6,0.5,3.5,1,6.4,1
		c4.1,0,5.4,0.3,6.4,1.7c0.8,1,2.4,1.7,3.9,1.7c6.6,0,9.9,3.4,9.4,9.6l-0.3,3.8l-6.8,0.3c-4.6,0.2-7.9-0.2-9.8-1c-5-2.1-13-4-17.2-4
		c-2.3,0-4.5-0.6-5.5-1.5c-0.9-0.8-3.8-1.6-6.7-1.8c-2.9-0.2-5.8-1-6.7-1.6c-1-0.7-4.1-1.5-7.2-1.7c-3.1-0.3-6-1-6.6-1.6
		c-0.6-0.7-2.8-1.2-4.8-1.2s-4.2-0.6-4.9-1.3s-2.2-1.3-3.3-1.3c-1.2,0-2.7-0.4-3.2-1c-1.4-1.2-10-3.8-15.2-4.6
		c-2.1-0.3-4.1-1.1-4.8-1.8s-2.8-1.3-4.7-1.3c-1.9,0-3.9-0.5-4.5-1.2c-0.6-0.6-3.1-1.6-5.5-2.2c-2.5-0.6-6.2-1.5-8.4-2
		s-4.6-1.5-5.5-2.1c-0.8-0.7-3.5-1.2-5.9-1.2c-3.1,0-4.8-0.5-6.1-1.7c-0.9-1-2.9-1.7-4.4-1.7c-1.5,0-3.1-0.3-3.6-0.8
		c-0.6-0.4-2.7-1.2-4.6-1.8c-2.1-0.5-3.7-1.4-3.7-1.8c0-0.4-1.9-0.8-4.2-0.8c-2.3,0-5.8-0.8-7.9-1.7c-2-1-5.2-1.7-7.1-1.7
		c-2,0-5.1-0.6-7.1-1.3c-1.9-0.7-4.6-1.3-6.1-1.3c-1.4,0-3.7-0.5-5.1-1.1c-1.4-0.7-4.3-1.5-6.7-1.8c-2.4-0.3-4.9-1.1-5.7-1.8
		c-2.1-1.9-26.1-1.9-28.2,0c-0.8,0.7-3.4,1.6-6,1.9c-2.5,0.3-4.7,0.9-5,1.2c-0.3,0.4-2.6,1.6-5,2.5c-2.6,1-5.2,2.5-5.9,3.5
		c-0.8,1-2.1,1.7-3,1.7c-0.8,0-3.1,1.2-5.2,2.6c-2.1,1.5-4.4,2.6-5.3,2.6c-0.8,0-2,0.8-2.6,1.7c-0.6,1-1.8,1.7-2.6,1.7
		c-0.9,0-3.2,1.2-5.3,2.6c-2.1,1.5-4.5,2.6-5.6,2.6c-1,0-2.4,0.8-3.1,1.7c-0.7,1-1.9,1.7-2.8,1.7c-0.9,0-3.2,1.1-5.2,2.4
		c-2,1.4-4.2,2.9-5.1,3.3c-2.1,1-10.4,7.1-13.2,9.7c-1.2,1-2.9,1.9-3.5,1.9c-0.8,0-4.5,2.9-8.5,6.5c-3.8,3.5-7.4,6.5-8,6.5
		c-0.5,0-2.7,2-4.7,4.3c-2.1,2.4-4,4.3-4.4,4.3s-1.8,1.5-3,3.3c-1.3,1.7-4.4,5.1-7,7.4c-2.8,2.4-4.7,4.9-4.7,6.1
		c0,1.2-1.9,3.3-4.9,5.6c-3.1,2.4-4.9,4.4-4.9,5.6c0,1.1-1.2,2.9-2.6,4.1c-1.4,1.1-3.8,4.4-5.4,7.3c-2.7,4.9-5.3,8.5-13.7,18.2
		c-2.2,2.5-4.1,5.6-4.5,6.9c-0.7,2.3-3.3,6.2-6,8.8c-0.7,0.6-1.3,1.9-1.3,2.9c0,0.9-0.6,1.6-1.4,1.6c-1.5,0-5.5,5-5.5,6.8
		c0,0.6-0.7,1.6-1.5,2.3c-0.8,0.8-1.5,2.1-1.5,3c0,1-0.7,2.3-1.5,3c-0.9,0.9-1.5,2.9-1.5,5.4c0,2.7,0.5,4.6,1.5,5.3
		c0.8,0.6,1.5,1.6,1.5,2.4s1,2.7,2.3,4.2l2.2,2.9h10c7.1,0,10.4-0.3,11.3-1.1c3-2.7,14.6-2.8,14.6-0.2c0,0.6,0.8,1.4,1.8,1.7
		c1.6,0.5,1.6,0.6,0,1.4c-1,0.5-1.8,1.2-1.8,1.6c0,0.5-0.9,1.6-2,2.6c-1.8,1.6-2,2.9-2,11.7s0.2,10.1,2,11.7c2.3,2,2.6,4.8,0.6,5.8
		c-0.7,0.3-2.1,2.2-3,3.9c-1.6,2.9-1.7,3.3-0.1,5.4c2.7,3.5,8,3.1,12.6-0.8c2.3-1.9,4.5-3,6.2-3h2.7l-0.7,5.9
		c-1.1,9.5-5.7,17.5-10.1,17.5c-0.8,0-2.1,1.4-2.9,3c-0.8,1.6-1.9,3-2.4,3c-0.6,0-1,0.5-1,1.2c0,0.7-0.9,1.6-2,1.8
		c-3.1,0.9-2.8,6.8,0.8,9.5c3.1,2.3,8.5,2.9,10.9,1c0.9-0.6,3.5-1.6,6-2.2c2.5-0.6,6.2-1.5,8.4-2s4.6-1.5,5.5-2.1
		c0.8-0.7,2.3-1.2,3.1-1.2c0.9,0,3.4-1.4,5.7-3c2.3-1.6,5.1-3,6.3-3c1.2,0,3.1-0.6,4.1-1.3c2.7-1.7,3-1.6,5.3,1.7l2.2,3l-2.3,4
		c-2.2,4-14.6,15.9-16.5,15.9c-0.5,0-1.4,0.5-1.8,1.1s-2,1.6-3.4,2.1c-1.6,0.6-2.8,1.5-2.8,2c0,0.4-0.7,0.9-1.5,0.9
		c-0.9,0-1.8,0.6-2.1,1.3c-0.4,0.7-1.6,1.3-2.8,1.3c-1.1,0-3.1,1-4.3,2.2c-2.2,2-7.6,3.9-11.1,3.9c-0.8,0-2.4,0.6-3.4,1.3
		c-1,0.7-2.7,1.3-3.6,1.3c-1.1,0-3.1,0.5-4.4,1.2c-1.5,0.7-3.4,1.5-4.3,1.7c-1.1,0.3-1.8,1.3-1.8,2.6c0,1.2-0.7,2.5-1.6,2.9
		c-1.7,0.8-4.6,7.7-5.8,13.6c-0.4,1.9-1,3.9-1.5,4.3c-0.4,0.5-1.1,1.8-1.5,3c-0.4,1.1-1.4,2.6-2.1,3.3c-0.8,0.6-1.4,2-1.4,2.9
		c0,1.6-3.4,7.4-5,8.5c-0.3,0.3-1,1.4-1.4,2.5c-0.4,1.2-1.1,2.5-1.6,3c-4,4.2-4.8,5.3-5.3,6.6c-0.3,0.9-1.2,1.8-2,2.1
		c-0.8,0.3-1.5,1-1.5,1.8c0,0.7-0.4,1.3-1,1.3c-1.3,0-8.9,6.7-8.9,7.7c0,0.4-0.9,1.1-2,1.4c-1.1,0.3-2,1-2,1.6
		c0,1.2-2.7,3.8-5.9,5.7c-3.2,1.9-9.8,7.7-9.8,8.6s-2.4,1.8-4.5,1.8c-0.8,0-3.6,2-6.4,4.3c-2.8,2.4-5.8,4.3-6.8,4.3
		s-2.1,0.7-2.4,1.6c-0.3,0.9-2.6,2.2-5,3.1c-2.5,1-4.9,2.2-5.5,2.9C1712.4,10032.5,1702.4,10032.8,1701.5,10031.5z M1788.6,9754.8
		c1.1-1,2-2.2,2-2.7c0-0.5,1.5-2.5,3.3-4.5c1.8-2,4-4.9,4.9-6.4c0.9-1.6,2-2.9,2.5-2.9c1,0,9-9.1,9-10.2c0-0.4,0.9-1.5,2-2.3
		c1.6-1.2,2-2.5,1.8-5.1c-0.3-3-0.7-3.6-2.7-3.8c-1.5-0.2-2.8,0.3-3.2,1s-1.6,1.4-2.3,1.4c-0.8,0-1.5,0.6-1.5,1.3
		c0,0.8-0.8,1.6-1.7,1.9c-1,0.3-2.2,1-2.6,1.7c-0.4,0.6-1.9,1.1-3.1,1.1c-1.4,0-2.6,0.6-3,1.6c-0.3,1-1.2,1.9-2,2.2
		c-0.8,0.3-1.5,1-1.5,1.6c0,0.7-1.5,2.6-3.1,4.3c-5.3,5.2-5.7,5.7-7.7,9.5c-3,5.5-2.5,10.1,1,10.1c1.1,0,2.2,0.4,2.5,0.9
		C1784.2,9757.1,1786.4,9756.7,1788.6,9754.8z M1751.6,9705.5c1.6-1.1,4.5-3.5,6.7-5.3c2.1-1.8,5-3.8,6.5-4.5s3.6-2.2,4.8-3.3
		c3-2.8,4-3.5,9.2-5.8c2.4-1.1,5-2.8,5.7-3.6c0.9-1.1,2.5-1.6,4.9-1.6c2.7,0,4.5-0.8,7-2.6c1.8-1.5,4.3-2.6,5.5-2.6
		c1.2,0,3.3-0.8,4.7-1.7c1.4-1,3.3-1.7,4.4-1.7c1.2,0,2.3-0.3,2.6-0.8c1.1-1.5,8.6-4.4,11.3-4.4c1.6,0,3.9-0.8,5.3-1.7
		c1.4-1,3.2-1.7,4.2-1.7c0.9,0,2.5-0.5,3.2-1.1c0.9-0.6,4.9-2,9-3.1c4-1,8.1-2.3,8.9-2.8s2.3-1,3.2-1.3c0.9-0.3,1.7-0.9,1.7-1.3
		s1.2-1.3,2.8-1.8c6.9-2.5,11-4.3,11-5c0-0.3,2.1-0.9,4.5-1.1c2.6-0.2,4.8-0.8,5.2-1.2c0.5-0.6,4.2-2.2,11.7-4.7
		c1.2-0.4,2.2-1.1,2.2-1.6c0-0.4,0.8-0.9,1.9-0.9c1,0,2.9-0.7,4.1-1.6c1.3-0.9,3.1-1.8,4.1-2.2c0.9-0.3,2.1-1.5,2.7-2.7
		c0.5-1.1,1.4-2.3,1.9-2.7c0.6-0.3,1.1-2.2,1.1-4.1c0-4.3-3.5-8.4-7.4-8.4c-1.3,0-2.6-0.3-2.9-0.8c-0.3-0.4-3-1-5.9-1.3
		c-3-0.3-5.9-1.2-6.6-1.9c-0.6-0.7-2.4-1.2-3.8-1.2c-1.6,0-3-0.6-3.3-1.3c-0.4-1-2.2-1.3-7.3-1.3c-4.9,0-7.2,0.3-8.1,1.3
		c-0.8,0.9-3.1,1.3-7,1.3c-3.7,0-6.2,0.4-7.2,1.3c-0.8,0.7-2.1,1.3-2.8,1.3c-2.5,0-17.5,4.5-17.5,5.3c0,0.4-1.5,0.8-3.1,0.8
		c-1.8,0-4.4,0.5-5.8,1.2c-1.5,0.6-7,1.5-12.3,1.8c-8.2,0.4-13.7,1.5-20.6,3.6c-0.5,0.2-3,1.2-5.3,2.4c-2.5,1.2-7.3,2.6-10.8,3
		c-7.1,1-14.9,3.3-14.9,4.4c0,0.3-1.4,1-3.1,1.2c-3.9,0.8-13.6,9.1-13.6,11.7c0,1.1-0.8,2.1-1.8,2.3c-2.4,0.5-4.1,4.2-5.2,11.2
		c-0.5,3.2-1.4,6.2-1.9,6.7c-0.6,0.5-1,6.5-1,13.6c0,10.2,0.3,12.9,1.5,13.7c1,0.7,1.5,2.6,1.5,5.3c0,3,0.5,4.4,1.8,5.1
		C1741.8,9708.8,1748.4,9707.8,1751.6,9705.5z"/>
</g>
<text transform="matrix(1 0 0 1 -8.1431 113)" class="st0 st1 st2">Witch Network</text>
</svg>
